HIERARCHY
ROOT hip
{
	OFFSET 0.000000 0.000000 0.000000
	CHANNELS 6 Xposition Yposition Zposition Xrotation Zrotation Yrotation 
	JOINT abdomen
	{
		OFFSET 0.000000 3.422050 0.000000
		CHANNELS 3 Xrotation Zrotation Yrotation 
		JOINT chest
		{
			OFFSET 0.000000 8.486693 -0.684411
			CHANNELS 3 Xrotation Zrotation Yrotation 
			JOINT neck
			{
				OFFSET 0.000000 10.266162 -0.273764
				CHANNELS 3 Xrotation Zrotation Yrotation 
				JOINT head
				{
					OFFSET 0.000000 3.148285 0.000000
					CHANNELS 3 Xrotation Zrotation Yrotation 
					End Site
					{
						OFFSET 0.000000 3.148289 0.000000
					}
				}
			}
			JOINT lCollar
			{
				OFFSET 3.422053 6.707223 -0.821293
				CHANNELS 3 Yrotation Zrotation Xrotation 
				JOINT lShldr
				{
					OFFSET 3.285171 0.000000 0.000000
					CHANNELS 3 Zrotation Yrotation Xrotation 
					JOINT lForeArm
					{
						OFFSET 10.129278 0.000000 0.000000
						CHANNELS 3 Yrotation Zrotation Xrotation 
						JOINT lHand
						{
							OFFSET 8.486692 0.000000 0.000000
							CHANNELS 3 Zrotation Yrotation Xrotation 
							End Site
							{
								OFFSET 4.106464 0.000000 0.000000
							}
						}
					}
				}
			}
			JOINT rCollar
			{
				OFFSET -3.558935 6.707223 -0.821293
				CHANNELS 3 Yrotation Zrotation Xrotation 
				JOINT rShldr
				{
					OFFSET -3.148289 0.000000 0.000000
					CHANNELS 3 Zrotation Yrotation Xrotation 
					JOINT rForeArm
					{
						OFFSET -10.266159 0.000000 0.000000
						CHANNELS 3 Yrotation Zrotation Xrotation 
						JOINT rHand
						{
							OFFSET -8.349810 0.000000 0.000000
							CHANNELS 3 Zrotation Yrotation Xrotation 
							End Site
							{
								OFFSET -4.106464 0.000000 0.000000
							}
						}
					}
				}
			}
		}
	}
	JOINT lThigh
	{
		OFFSET 5.338403 -1.642589 1.368821
		CHANNELS 3 Xrotation Zrotation Yrotation 
		JOINT lShin
		{
			OFFSET -2.053232 -20.121670 0.000000
			CHANNELS 3 Xrotation Zrotation Yrotation 
			JOINT lFoot
			{
				OFFSET 0.000000 -19.300380 -1.231939
				CHANNELS 3 Xrotation Yrotation Zrotation 
				End Site
				{
					OFFSET 0.000000 -2.463878 4.653993
				}
			}
		}
	}
	JOINT rThigh
	{
		OFFSET -5.338403 -1.642589 1.368821
		CHANNELS 3 Xrotation Zrotation Yrotation 
		JOINT rShin
		{
			OFFSET 2.053232 -20.121670 0.000000
			CHANNELS 3 Xrotation Zrotation Yrotation 
			JOINT rFoot
			{
				OFFSET 0.000000 -19.300380 -1.231939
				CHANNELS 3 Xrotation Yrotation Zrotation 
				End Site
				{
					OFFSET 0.000000 -2.463878 4.653993
				}
			}
		}
	}
}
MOTION
Frames: 20
Frame Time: 0.033264
0.000000 43.528500 0.000000 0.000000 0.000000 0.000000 0.000000 0.000000 0.000000 0.000000 0.000000 0.000000 0.000000 0.000000 0.000000 0.000000 0.000000 0.000000 0.000000 0.000000 0.000000 0.000000 0.000000 0.000000 0.000000 0.000000 0.000000 0.000000 0.000000 0.000000 0.000000 0.000000 0.000000 0.000000 0.000000 0.000000 0.000000 0.000000 0.000000 0.000000 0.000000 0.000000 0.000000 0.000000 0.000000 0.000000 0.000000 0.000000 0.000000 0.000000 0.000000 0.000000 0.000000 0.000000 0.000000 0.000000 0.000000 0.000000 0.000000 0.000000 
0.000000 5.996777 35.999802 -94.004440 0.000000 0.000000 -7.343709 0.000000 0.000000 10.557060 -0.002182 -0.451499 25.997908 0.000000 0.000000 4.997208 0.000000 0.000000 -6.894816 -6.252459 -16.423616 -74.408066 -4.647095 -0.906358 -39.563877 6.001892 -0.059238 -19.205492 14.024112 -7.210712 -0.840226 -0.223157 -9.017997 83.833313 3.363502 0.643774 60.203495 3.375465 -0.066810 14.737633 -6.949516 -3.187342 -77.869125 28.902428 35.074879 105.391930 -28.924608 -2.534534 19.118288 -14.579430 11.924317 -84.526337 -33.435452 -32.765446 114.298141 20.807543 7.186862 19.116936 14.597339 -11.948896 
0.000000 5.996777 35.999802 -94.004433 0.000000 0.000000 -6.127796 0.000000 0.000000 9.450803 -0.002090 -0.451448 24.672798 0.000000 0.000000 3.945835 0.000000 0.000000 -6.182793 -5.522779 -15.953002 -75.258842 -4.403185 -0.763747 -40.202652 5.694246 0.015650 -19.106535 13.865169 -7.047203 -1.193420 -0.450065 -8.510679 84.102058 3.025263 0.698371 61.029606 3.532834 -0.074794 14.737635 -6.949516 -3.187342 -78.459915 28.900816 34.835461 106.160667 -28.543688 -2.918097 19.118288 -14.579430 11.924317 -84.743256 -33.170502 -32.649120 115.098167 20.678135 7.454688 19.116936 14.597339 -11.948896 
0.000000 5.996777 35.999802 -94.004440 0.000000 0.000000 -4.909671 0.000000 0.000000 8.342884 -0.001996 -0.451399 23.344810 0.000000 0.000000 2.893037 0.000000 0.000000 -5.476599 -4.786284 -15.491388 -76.109581 -4.156957 -0.624697 -40.841091 5.385603 0.087093 -19.008101 13.705941 -6.884076 -1.544791 -0.680210 -8.004477 84.370468 2.686694 0.751374 61.856579 3.690207 -0.085063 14.737633 -6.949516 -3.187342 -79.050880 28.897049 34.596008 106.924286 -28.158024 -3.294724 19.118288 -14.579430 11.924317 -84.958916 -32.905159 -32.534328 115.897438 20.545155 7.720519 19.116936 14.597341 -11.948897 
0.000000 5.996777 35.999802 -94.004448 0.000000 0.000000 -3.689604 0.000000 0.000000 7.233505 -0.001901 -0.451352 22.014305 0.000000 0.000000 1.838985 0.000000 0.000000 -4.776186 -4.043251 -15.038799 -76.960144 -3.908486 -0.489257 -41.479164 5.076022 0.155078 -18.910196 13.546434 -6.721332 -1.894297 -0.913556 -7.499434 84.638565 2.347814 0.802786 62.684361 3.847535 -0.097619 14.737636 -6.949517 -3.187343 -79.641945 28.891109 34.356556 107.682747 -27.767729 -3.664393 19.118288 -14.579430 11.924317 -85.173325 -32.639427 -32.421062 116.695816 20.408634 7.984271 19.116936 14.597339 -11.948896 
0.000000 5.996777 35.999802 -94.004440 0.000000 0.000000 -2.467867 0.000000 0.000000 6.122875 -0.001805 -0.451307 20.681637 0.000000 0.000000 0.783859 0.000000 0.000000 -4.081499 -3.293955 -14.595237 -77.810501 -3.657858 -0.357473 -42.116867 4.765564 0.219597 -18.812819 13.386651 -6.558969 -2.241896 -1.150064 -6.995586 84.906311 2.008638 0.852608 63.512878 4.004768 -0.112464 14.737633 -6.949516 -3.187342 -80.233109 28.883013 34.117142 108.436081 -27.372950 -4.027090 19.118288 -14.579430 11.924317 -85.386467 -32.373310 -32.309288 117.493240 20.268608 8.245873 19.116934 14.597337 -11.948895 
0.000000 5.996777 35.999802 -94.004440 0.000000 0.000000 -1.244734 0.000000 0.000000 5.011195 -0.001708 -0.451264 19.347155 0.000000 0.000000 -0.272164 0.000000 0.000000 -3.392473 -2.538675 -14.160706 -78.660553 -3.405154 -0.229390 -42.754166 4.454290 0.280641 -18.715963 13.226591 -6.396985 -2.587549 -1.389695 -6.492970 85.173775 1.669185 0.900840 64.342033 4.161854 -0.129601 14.737633 -6.949516 -3.187342 -80.824295 28.872747 33.877800 109.184273 -26.973820 -4.382803 19.118288 -14.579430 11.924317 -85.598434 -32.106831 -32.199001 118.289589 20.125126 8.505251 19.116936 14.597339 -11.948896 
0.000000 5.996777 35.999802 -94.004440 0.000000 0.000000 -0.020483 0.000000 0.000000 3.898676 -0.001610 -0.451223 18.011211 0.000000 0.000000 -1.328907 0.000000 0.000000 -2.709042 -1.777694 -13.735200 -79.510223 -3.150459 -0.105048 -43.391075 4.142264 0.338201 -18.619637 13.066263 -6.235380 -2.931215 -1.632409 -5.991618 85.440941 1.329471 0.947485 65.171776 4.318745 -0.149028 14.737633 -6.949516 -3.187342 -81.415451 28.860327 33.638596 109.927299 -26.570442 -4.731537 19.118288 -14.579430 11.924317 -85.809174 -31.839987 -32.090187 119.084801 19.978224 8.762334 19.116936 14.597339 -11.948896 
0.000000 5.996777 35.999802 -94.004440 0.000000 0.000000 1.204608 0.000000 0.000000 2.785527 -0.001511 -0.451183 16.674183 0.000000 0.000000 -2.386189 0.000000 0.000000 -2.031129 -1.011292 -13.318708 -80.359467 -2.893859 0.015511 -44.027576 3.829549 0.392272 -18.523834 12.905665 -6.074152 -3.272855 -1.878165 -5.491569 85.707802 0.989516 0.992544 66.002007 4.475389 -0.170743 14.737633 -6.949516 -3.187342 -82.006531 28.845726 33.399532 110.665176 -26.162968 -5.073281 19.118288 -14.579430 11.924317 -86.018723 -31.572796 -31.982836 119.878754 19.827944 9.017048 19.116936 14.597339 -11.948896 
0.000000 5.996777 35.999802 -94.004433 0.000000 0.000000 2.430259 0.000000 0.000000 1.671958 -0.001412 -0.451145 15.336431 0.000000 0.000000 -3.443832 0.000000 0.000000 -1.358659 -0.239754 -12.911230 -81.208191 -2.635442 0.132251 -44.663654 3.516205 0.442847 -18.428558 12.744806 -5.913301 -3.612433 -2.126921 -4.992850 85.974403 0.649334 1.036017 66.832664 4.631738 -0.194744 14.737635 -6.949517 -3.187343 -82.597527 28.828981 33.160686 111.397919 -25.751526 -5.408046 19.118288 -14.579430 11.924317 -86.227081 -31.305264 -31.876938 120.671371 19.674335 9.269327 19.116936 14.597339 -11.948896 
0.000000 5.996777 35.999802 -94.004448 0.000000 0.000000 3.656192 0.000000 0.000000 0.558177 -0.001311 -0.451109 13.998303 0.000000 0.000000 -4.501656 0.000000 0.000000 -0.691547 0.536639 -12.512746 -82.056297 -2.375294 0.245138 -45.299290 3.202297 0.489923 -18.333797 12.583683 -5.752822 -3.949913 -2.378634 -4.495499 86.240738 0.308944 1.077906 67.663666 4.787740 -0.221025 14.737635 -6.949517 -3.187343 -83.188339 28.810076 32.922073 112.125526 -25.336237 -5.735840 19.118288 -14.579430 11.924318 -86.434288 -31.037401 -31.772463 121.462570 19.517448 9.519109 19.116936 14.597339 -11.948896 
0.000000 5.996777 35.999802 -94.004440 0.000000 0.000000 4.882125 0.000000 0.000000 -0.555603 -0.001210 -0.451076 12.660179 0.000000 0.000000 -5.559480 0.000000 0.000000 -0.029705 1.317599 -12.123240 -82.903748 -2.113506 0.354139 -45.934494 2.887887 0.533495 -18.239565 12.422304 -5.592719 -4.285257 -2.633262 -3.999543 86.506828 -0.031637 1.118211 68.494919 4.943346 -0.249580 14.737633 -6.949516 -3.187342 -83.778946 28.789013 32.683739 112.848038 -24.917240 -6.056677 19.118286 -14.579429 11.924316 -86.640358 -30.769224 -31.669418 122.252274 19.357334 9.766329 19.116934 14.597339 -11.948895 
0.000000 5.996777 35.999802 -94.004440 0.000000 0.000000 6.107776 0.000000 0.000000 -1.669172 -0.001109 -0.451044 11.322423 0.000000 0.000000 -6.617122 0.000000 0.000000 0.626959 2.102844 -11.742702 -83.750450 -1.850168 0.459225 -46.569252 2.573039 0.573561 -18.145849 12.260671 -5.432987 -4.618432 -2.890758 -3.505015 86.772667 -0.372392 1.156934 69.326363 5.098505 -0.280402 14.737633 -6.949516 -3.187342 -84.369286 28.765793 32.445724 113.565437 -24.494665 -6.370570 19.118286 -14.579430 11.924316 -86.845284 -30.500732 -31.567780 123.040367 19.194031 10.010919 19.116936 14.597339 -11.948895 
0.000000 5.996777 35.999802 -94.004440 0.000000 0.000000 7.332868 0.000000 0.000000 -2.782321 -0.001007 -0.451014 9.985389 0.000000 0.000000 -7.674406 0.000000 0.000000 1.278542 2.892091 -11.371105 -84.596352 -1.585372 0.560368 -47.203529 2.257814 0.610119 -18.052654 12.098783 -5.273624 -4.949405 -3.151078 -3.011942 87.038261 -0.713303 1.194076 70.157928 5.253168 -0.313481 14.737633 -6.949516 -3.187342 -84.959343 28.740438 32.208080 114.277779 -24.068647 -6.677541 19.118288 -14.579430 11.924317 -87.049088 -30.231937 -31.467529 123.826820 19.027607 10.252827 19.116936 14.597339 -11.948896 
0.000000 5.996777 35.999802 -94.004440 0.000000 0.000000 8.557117 0.000000 0.000000 -3.894840 -0.000904 -0.450986 8.649453 0.000000 0.000000 -8.731147 0.000000 0.000000 1.925144 3.685054 -11.008428 -85.441391 -1.319208 0.657543 -47.837334 1.942277 0.643169 -17.959978 11.936648 -5.114632 -5.278142 -3.414176 -2.520353 87.303658 -1.054353 1.229637 70.989502 5.407288 -0.348809 14.737633 -6.949516 -3.187342 -85.549049 28.712940 31.970825 114.985092 -23.639315 -6.977616 19.118288 -14.579430 11.924317 -87.251808 -29.962862 -31.368675 124.611519 18.858105 10.491988 19.116936 14.597339 -11.948896 
0.000000 5.996777 35.999802 -94.004448 0.000000 0.000000 9.780250 0.000000 0.000000 -5.006521 -0.000801 -0.450960 7.314968 0.000000 0.000000 -9.787171 0.000000 0.000000 2.566870 4.481454 -10.654647 -86.285477 -1.051771 0.750728 -48.470665 1.626490 0.672711 -17.867819 11.774269 -4.956007 -5.604612 -3.680005 -2.030274 87.568840 -1.395525 1.263618 71.821045 5.560814 -0.386372 14.737633 -6.949516 -3.187342 -86.138351 28.683302 31.734009 115.687355 -23.206789 -7.270817 19.118288 -14.579430 11.924317 -87.453392 -29.693476 -31.271158 125.394379 18.685587 10.728354 19.116936 14.597339 -11.948896 
0.000000 5.996777 35.999802 -94.004433 0.000000 0.000000 11.001987 0.000000 0.000000 -6.117151 -0.000698 -0.450936 5.982298 0.000000 0.000000 -10.842297 0.000000 0.000000 3.203826 5.281006 -10.309739 -87.128586 -0.783153 0.839904 -49.103489 1.310517 0.698747 -17.776178 11.611646 -4.797749 -5.928785 -3.948517 -1.541732 87.833809 -1.736800 1.296020 72.652428 5.713699 -0.426158 14.737633 -6.949516 -3.187342 -86.727226 28.651545 31.497673 116.384651 -22.771221 -7.557174 19.118288 -14.579430 11.924317 -87.653938 -29.423843 -31.175030 126.175331 18.510105 10.961865 19.116936 14.597339 -11.948896 
0.000000 5.996777 35.999802 -94.004440 0.000000 0.000000 12.222054 0.000000 0.000000 -7.226529 -0.000594 -0.450915 4.651793 0.000000 0.000000 -11.896345 0.000000 0.000000 3.836124 6.083433 -9.973674 -87.970581 -0.513447 0.925052 -49.735817 0.994420 0.721278 -17.685055 11.448785 -4.639855 -6.250631 -4.219665 -1.054750 88.098610 -2.078164 1.326843 73.483635 5.865894 -0.468154 14.737633 -6.949516 -3.187342 -87.315613 28.617661 31.261858 117.077026 -22.332727 -7.836726 19.118284 -14.579429 11.924316 -87.853401 -29.153938 -31.080236 126.954323 18.331732 11.192480 19.116936 14.597339 -11.948896 
0.000000 5.996777 35.999802 -94.004440 0.000000 0.000000 13.440178 0.000000 0.000000 -8.334450 -0.000490 -0.450895 3.323811 0.000000 0.000000 -12.949145 0.000000 0.000000 4.463878 6.888455 -9.646426 -88.811470 -0.242748 1.006159 -50.367626 0.678263 0.740308 -17.594446 11.285687 -4.482326 -6.570123 -4.493400 -0.569354 88.363235 -2.419598 1.356089 74.314545 6.017352 -0.512341 14.737633 -6.949516 -3.187342 -87.903481 28.581669 31.026596 117.764458 -21.891434 -8.109499 19.118288 -14.579430 11.924317 -88.051811 -28.883768 -30.986761 127.731270 18.150505 11.420135 19.116934 14.597339 -11.948895 
0.000000 5.996777 35.999802 -94.004440 0.000000 0.000000 14.656092 0.000000 0.000000 -9.440704 -0.000386 -0.450877 1.998697 0.000000 0.000000 -14.000520 0.000000 0.000000 5.087202 7.695796 -9.327968 -89.651146 0.028850 1.083212 -50.998920 0.362108 0.755841 -17.504351 11.122358 -4.325158 -6.887233 -4.769672 -0.085565 88.627693 -2.761086 1.383758 75.145081 6.168028 -0.558705 14.737633 -6.949516 -3.187342 -88.490761 28.543573 30.791927 118.447021 -21.447479 -8.375538 19.118288 -14.579430 11.924317 -88.249184 -28.613358 -30.894613 128.506104 17.966503 11.644798 19.116934 14.597339 -11.948895 
